# xmcd
#
# Track frame offsets: 
#        150
#        21157
#        48307
#        68576
#        104086
#        123588
#        153763
#        195487
#        227820
#
# Disc length: 3400 seconds
#
# Revision: 0
# Processed by: cddbd v1.5.2PL0 Copyright (c) Steve Scherf et al.
# Submitted via: ExactAudioCopy v0.95b4
#
DISCID=710d4609
DTITLE=Eric Clapton - One More Car, One More Rider [Disc 2]
DYEAR=2001
DGENRE=Blues
TTITLE0=I Want A Little Girl
TTITLE1=Badge
TTITLE2=Hootchie Coochie Man
TTITLE3=Have You Ever Loved A Woman
TTITLE4=Cocaine
TTITLE5=Wonderful Tonight
TTITLE6=Layla
TTITLE7=Sunshine Of Your Love
TTITLE8=Over The Rainbow
EXTD=
EXTT0=
EXTT1=
EXTT2=
EXTT3=
EXTT4=
EXTT5=
EXTT6=
EXTT7=
EXTT8=
PLAYORDER=
